<?xml version="1.0" standalone="no"?>
<!DOCTYPE svg PUBLIC "-//W3C//DTD SVG 20010904//EN"
 "http://www.w3.org/TR/2001/REC-SVG-20010904/DTD/svg10.dtd">
<svg version="1.0" xmlns="http://www.w3.org/2000/svg"
 width="700.000000pt" height="700.000000pt" viewBox="0 0 700.000000 700.000000"
 preserveAspectRatio="xMidYMid meet">
<metadata>
Created by potrace 1.14, written by Peter Selinger 2001-2017
</metadata>
<g transform="translate(0.000000,700.000000) scale(0.100000,-0.100000)"
fill="#000000" stroke="none">
<path d="M390 6781 c-69 -21 -121 -65 -156 -131 -18 -34 -19 -130 -19 -3150
l0 -3115 25 -45 c30 -52 96 -105 149 -120 26 -7 1026 -9 3132 -8 l3094 3 45
25 c52 30 105 96 120 149 7 26 9 1026 8 3132 l-3 3094 -25 45 c-29 52 -95 105
-148 120 -44 12 -6182 13 -6222 1z m1982 -161 c2 -8 4 -460 3 -1005 l0 -990
-1005 0 -1005 0 0 977 0 977 24 25 c13 14 33 26 45 28 11 2 452 3 978 3 843 0
957 -2 960 -15z m2125 -992 l1 -1008 -244 0 -244 0 0 199 0 199 43 0 c79 -1
89 2 118 31 40 41 40 91 0 132 -16 16 -39 29 -50 30 -12 0 -41 1 -66 2 l-45 1
0 227 0 226 33 1 c92 1 99 2 128 31 39 39 40 89 2 131 -25 27 -35 31 -87 32
l-58 2 -19 43 c-48 113 -224 242 -386 283 -41 10 -41 11 -40 53 0 28 8 51 24
70 13 16 26 41 29 55 3 15 7 32 9 38 8 25 -19 94 -47 123 -89 91 -241 51 -277
-74 -11 -40 9 -118 39 -150 15 -16 24 -39 26 -64 l2 -39 -51 -13 c-55 -13 -56
-13 -127 -49 -113 -58 -216 -152 -252 -231 -22 -48 -23 -49 -63 -45 -88 8
-149 -56 -125 -130 16 -48 47 -65 122 -67 l62 -2 1 -223 c0 -248 7 -229 -79
-231 -57 -2 -81 -13 -97 -42 -19 -35 -20 -68 -4 -99 21 -40 49 -53 117 -53 32
0 58 -3 59 -6 3 -21 4 -368 1 -378 -3 -10 -59 -13 -236 -13 l-231 0 2 978 c1
537 2 991 2 1007 l1 30 1004 0 1003 0 0 -1007z m2110 979 l28 -27 0 -980 0
-980 -1012 0 -1013 0 0 1008 0 1007 985 0 985 0 27 -28z m-3011 -577 c97 -32
241 -126 221 -146 -15 -15 -122 -21 -389 -20 -191 1 -270 4 -279 13 -27 27
144 139 247 161 53 12 151 8 200 -8z m214 -371 c4 -6 5 -417 1 -440 -1 -3
-149 -6 -331 -6 l-330 0 0 227 0 227 328 0 c180 0 329 -3 332 -8z m2 -658 c2
-9 3 -97 3 -196 l-1 -180 -332 -3 -332 -2 0 193 c0 107 2 196 5 199 3 2 151 5
329 5 288 0 325 -2 328 -16z m-1438 -1489 c-1 -549 -2 -1004 -3 -1012 -1 -13
-118 -15 -998 -13 -549 1 -1000 2 -1003 2 -4 1 -5 1991 -1 2013 0 3 452 6
1004 6 l1002 0 -1 -996z m281 925 l2 -68 96 -97 97 -97 -5 -60 c-2 -33 -7
-112 -10 -175 -3 -63 -8 -155 -11 -205 -8 -143 -12 -211 -19 -350 -3 -71 -8
-155 -10 -185 -2 -30 -7 -115 -10 -188 -4 -73 -8 -154 -10 -180 -1 -26 -6
-112 -10 -192 -4 -80 -9 -147 -11 -149 -2 -3 -206 -4 -254 -2 -13 1 -15 116
-13 983 1 541 2 996 2 1011 l1 28 82 -3 82 -3 1 -68z m1843 -937 l0 -1010 -32
-1 c-66 -2 -238 0 -241 3 -3 3 -8 82 -30 518 -5 114 -12 238 -20 365 -2 44 -7
139 -11 210 -3 72 -7 157 -9 190 -1 33 -6 121 -10 195 -5 74 -9 151 -9 171 -1
33 9 46 92 134 50 53 92 104 93 113 1 10 1 41 1 70 l0 52 88 0 88 0 0 -1010z
m2137 -2 l0 -1008 -35 -1 c-19 0 -475 -1 -1012 -2 l-978 -2 0 1013 0 1012
1013 -2 1012 -3 0 -1007z m-2651 501 c10 -223 18 -405 19 -459 l2 -55 -225
-123 c-124 -68 -263 -144 -310 -169 -47 -25 -98 -53 -115 -63 -16 -10 -64 -36
-105 -58 -41 -22 -138 -74 -214 -116 -77 -42 -141 -76 -143 -76 -1 0 0 26 3
58 3 31 7 82 9 112 2 30 7 96 10 145 4 50 8 106 10 125 3 33 16 197 19 249 2
27 -15 17 666 364 201 102 366 184 367 183 1 -1 5 -54 7 -117z m-1624 -1628
c13 -1 15 -118 14 -998 -1 -549 -2 -1000 -3 -1003 0 -3 -440 -5 -976 -5 l-975
0 -27 28 -28 27 0 973 c0 764 2 973 12 977 10 4 1934 5 1983 1z m383 0 c7 -1
5 -76 -8 -281 -3 -41 -7 -122 -10 -180 -3 -58 -7 -145 -10 -195 -7 -128 -14
-243 -20 -375 -3 -63 -8 -146 -10 -185 -8 -123 -15 -257 -20 -350 -2 -49 -7
-139 -10 -200 -4 -60 -8 -139 -9 -175 l-3 -65 -64 0 c-35 -1 -71 1 -79 3 -13
3 -15 119 -13 980 1 537 2 988 2 1002 l1 26 123 -2 c67 -1 126 -2 130 -3z
m1752 -1001 l0 -1005 -73 0 c-40 -1 -76 1 -81 4 -5 4 -12 72 -15 152 -4 80 -8
166 -11 190 -2 24 -7 114 -10 199 -8 172 -10 216 -19 375 -4 61 -8 153 -11
205 -2 52 -7 140 -10 195 -7 116 -13 229 -20 370 -3 55 -7 147 -10 204 -4 64
-2 107 4 110 5 4 65 6 133 6 l123 0 0 -1005z m2125 1001 c13 -1 15 -113 15
-976 l0 -975 -28 -27 -27 -28 -985 0 -985 0 0 1002 c0 659 3 1002 10 1005 9 3
1964 2 2000 -1z m-3005 -455 c81 -37 141 -110 161 -196 8 -38 13 -1337 4
-1349 -3 -4 -132 -7 -287 -6 -243 0 -282 2 -285 15 -2 8 -4 314 -3 680 l1 665
30 60 c71 139 236 196 379 131z"/>
<path d="M1268 6205 c-2 -1 -23 -5 -47 -9 -181 -25 -313 -204 -305 -416 6
-171 61 -276 178 -338 46 -25 61 -27 161 -27 127 0 168 15 227 85 19 22 38 40
42 40 9 0 -4 -99 -21 -150 -48 -146 -147 -210 -335 -216 -58 -2 -118 0 -132 6
-18 6 -27 6 -32 -2 -9 -15 -8 -187 1 -196 15 -15 279 -6 345 11 237 63 369
236 405 532 7 58 7 222 0 275 -26 191 -137 339 -292 387 -42 12 -186 26 -195
18z m150 -232 c71 -53 110 -181 78 -258 -29 -69 -93 -109 -178 -109 -70 0
-103 20 -135 84 -36 70 -28 187 18 251 42 60 157 77 217 32z"/>
<path d="M5604 6189 c-209 -43 -339 -163 -403 -372 -28 -92 -36 -168 -35 -327
0 -120 3 -144 27 -214 72 -206 221 -309 436 -300 157 7 273 76 335 199 32 66
38 92 42 200 7 178 -52 296 -181 363 -44 23 -62 26 -150 27 -120 0 -171 -20
-236 -93 l-42 -47 6 65 c12 141 58 218 157 267 90 45 187 58 315 40 l51 -7 -1
100 0 100 -33 6 c-65 12 -209 9 -288 -7z m76 -634 c35 -18 56 -44 70 -89 17
-52 8 -172 -16 -212 -52 -89 -173 -104 -253 -31 -51 47 -81 154 -62 225 27 99
166 156 261 107z"/>
<path d="M1213 4105 c-34 -7 -83 -23 -108 -34 -49 -22 -175 -110 -175 -122 0
-9 119 -153 130 -157 4 -2 37 17 73 42 100 69 200 89 279 57 62 -24 85 -119
53 -211 -29 -81 -68 -128 -385 -449 -83 -84 -150 -155 -151 -159 -1 -13 -1
-137 0 -154 1 -17 28 -18 421 -18 l420 0 0 105 c0 93 -2 105 -17 106 -10 1
-126 3 -258 4 -132 1 -243 3 -246 4 -4 0 28 34 70 73 354 336 414 423 414 603
0 95 -23 154 -85 215 -70 71 -147 100 -278 105 -57 2 -120 -2 -157 -10z"/>
<path d="M5674 4102 c-15 -2 -72 -78 -198 -265 -98 -144 -215 -317 -262 -385
l-84 -123 0 -90 0 -89 255 0 c197 0 255 -3 256 -12 1 -7 1 -64 1 -125 l0 -113
124 0 124 0 0 125 0 125 73 0 73 0 -1 93 c-1 50 -3 95 -3 98 -1 4 -32 6 -69 5
l-68 -1 -5 380 -5 380 -95 0 c-52 0 -104 -1 -116 -3z m-29 -514 c-2 -123 -4
-227 -5 -233 0 -6 -54 -10 -140 -10 -91 0 -139 4 -136 10 2 6 61 97 130 203
70 106 132 206 138 222 5 17 12 30 14 30 2 0 1 -100 -1 -222z"/>
<path d="M3427 3737 c-154 -49 -196 -247 -74 -354 106 -93 268 -57 328 72 74
160 -84 336 -254 282z"/>
<path d="M899 1965 c-1 -13 -1 -176 0 -192 1 -10 70 -13 295 -15 l294 -3 -22
-45 c-12 -25 -34 -74 -50 -110 -16 -36 -51 -111 -78 -168 -26 -57 -48 -105
-48 -106 0 -2 -22 -50 -49 -107 -26 -57 -59 -126 -71 -154 -12 -27 -36 -79
-52 -115 -46 -99 -78 -172 -78 -176 0 -2 60 -4 133 -4 l132 0 59 138 c33 75
71 162 84 192 28 63 93 211 212 485 45 105 86 194 91 199 5 6 9 50 9 98 0 77
-2 88 -17 89 -10 0 -204 1 -430 2 -269 1 -413 -1 -414 -8z"/>
<path d="M5436 1845 c-90 -71 -177 -141 -194 -154 l-31 -23 60 -74 c33 -41 63
-74 66 -74 8 0 139 106 180 147 19 18 36 33 37 33 1 0 2 -208 1 -462 l0 -463
128 -3 127 -2 0 600 c0 472 -3 600 -12 602 -7 0 -55 2 -106 2 l-93 1 -163
-130z"/>
</g>
</svg>
