<svg height="500" viewBox="0 0 500 500" width="500" xmlns="http://www.w3.org/2000/svg" xmlns:xlink="http://www.w3.org/1999/xlink"><clipPath id="a"><path d="m63.799999 186.7h468.70001v468.70001h-468.70001z"/></clipPath><clipPath id="b"><path d="m63.799999 186.7h468.70001v468.70001h-468.70001z"/></clipPath><clipPath id="c"><path d="m63.799999 186.7h468.70001v468.70001h-468.70001z"/></clipPath><clipPath id="d"><path d="m63.799999 186.7h468.70001v468.70001h-468.70001z"/></clipPath><g transform="matrix(1.0027737 0 0 1.0027731 -48.976962 -172.21774)"><path clip-path="url(#a)" d="m81.3 192.2c-6.6 0-12 5.4-12 12v433.7c0 6.6 5.4 12 12 12h433.7c6.6 0 12-5.4 12-12v-433.7c0-6.6-5.4-12-12-12z" fill="none" stroke="#000" stroke-width="11"/><path clip-path="url(#a)" d="m296.8 225c6.5 0 11.7-5.2 11.7-11.7s-5.2-11.7-11.7-11.7-11.7 5.2-11.7 11.7 5.3 11.7 11.7 11.7"/></g><g fill="none" stroke="#000"><path d="m204.32372 88.202469h88.74549" stroke-linecap="round" stroke-width="14.045"/><path d="m204.32372 134.63084h88.74549" stroke-linecap="round" stroke-width="14.045"/><path d="m218.06168 170.73067v-88.745402" stroke-linecap="round" stroke-width="14.045"/><path d="m279.43146 170.129v-88.143732" stroke-linecap="round" stroke-width="14.045"/><path clip-path="url(#b)" d="m329.8 254.4c.7-5-14.7-20.6-32.9-20.6s-33.5 15.6-32.9 20.6c.8 7.6 65 5.5 65.8 0z" stroke-width="11.566" transform="matrix(1.0027737 0 0 1.0027731 -48.976962 -172.21774)"/><path d="m248.84685 57.918705v-7.119698" stroke-linecap="round" stroke-width="14.045"/><g stroke-width="8" transform="matrix(1.0027737 0 0 1.0027731 -48.976962 -172.21774)"><path clip-path="url(#c)" d="m221.89999 195.5v450.70001"/><path clip-path="url(#c)" d="m373.20001 195.5v450.70001"/><path clip-path="url(#c)" d="m68.900002 345.20001h462.800008"/><path clip-path="url(#c)" d="m348.10001 497.20001h183.6"/><path clip-path="url(#c)" d="m66.099998 497.20001h179.400002"/><path clip-path="url(#c)" d="m66.099998 345.20001h199.600012"/></g></g><path d="m189.59624 173.63989v13.93894l13.51982 14.13871-14.53631 272.85417h40.21084v-93.05812h.10184c0-11.33132 9.22515-20.45697 20.65676-20.45697 11.4316 0 20.65674 9.12565 20.65674 20.45697v93.05812h39.40784l-14.3385-272.85417 13.43561-14.13871v-13.93894h-59.13625-.0274zm94.64852 31.98886 1.90371 45.42446-79.61868 43.42085 3.90926-51.24131z" stroke-width="1.00277"/><path clip-path="url(#d)" d="m297.5 433.2c8.3 0 15-6.7 15-14.9s-6.7-14.9-15-14.9-15 6.7-15 14.9c-.1 8.3 6.7 14.9 15 14.9" transform="matrix(1.0027737 0 0 1.0027731 -48.976962 -172.21774)"/></svg>