<?xml version="1.0" encoding="UTF-8" standalone="no"?>
<svg
   height="500"
   viewBox="0 0 500 500"
   width="500"
   version="1.1"
   id="svg202"
   sodipodi:docname="sudokuharbor_logo_favico.svg"
   inkscape:version="1.2.2 (b0a84865, 2022-12-01)"
   xmlns:inkscape="http://www.inkscape.org/namespaces/inkscape"
   xmlns:sodipodi="http://sodipodi.sourceforge.net/DTD/sodipodi-0.dtd"
   xmlns="http://www.w3.org/2000/svg"
   xmlns:svg="http://www.w3.org/2000/svg">
  <defs
     id="defs206">
    <clipPath
       id="c-0">
      <path
         d="M 60.400002,186.7 H 529.10001 V 655.40001 H 60.400002 Z"
         id="path138-4" />
    </clipPath>
    <clipPath
       id="a-0">
      <path
         d="M 60.400002,186.7 H 529.10001 V 655.40001 H 60.400002 Z"
         id="path132-5" />
    </clipPath>
  </defs>
  <sodipodi:namedview
     id="namedview204"
     pagecolor="#ffffff"
     bordercolor="#000000"
     borderopacity="0.25"
     inkscape:showpageshadow="2"
     inkscape:pageopacity="0"
     inkscape:pagecheckerboard="true"
     inkscape:deskcolor="#d1d1d1"
     showgrid="false"
     inkscape:zoom="1.5554378"
     inkscape:cx="436.85449"
     inkscape:cy="108.97253"
     inkscape:window-width="1490"
     inkscape:window-height="897"
     inkscape:window-x="11"
     inkscape:window-y="38"
     inkscape:window-maximized="0"
     inkscape:current-layer="svg202" />
  <clipPath
     id="a">
    <path
       d="m60.400002 186.7h468.70001v468.70001h-468.70001z"
       id="path132" />
  </clipPath>
  <clipPath
     id="b">
    <path
       d="m60.400002 186.7h468.70001v468.70001h-468.70001z"
       id="path135" />
  </clipPath>
  <clipPath
     id="c">
    <path
       d="m60.400002 186.7h468.70001v468.70001h-468.70001z"
       id="path138" />
  </clipPath>
  <clipPath
     id="d">
    <path
       d="m60.400002 186.7h468.70001v468.70001h-468.70001z"
       id="path141" />
  </clipPath>
  <clipPath
     id="e">
    <path
       d="m60.400002 186.7h468.70001v468.70001h-468.70001z"
       id="path144" />
  </clipPath>
  <clipPath
     id="f">
    <path
       d="m60.400002 186.7h468.70001v468.70001h-468.70001z"
       id="path147" />
  </clipPath>
  <path
     clip-path="url(#a-0)"
     d="m 77.9,192.2 c -6.6,0 -12,5.4 -12,12 v 433.7 c 0,6.6 5.4,12 12,12 h 433.7 c 6.6,0 12,-5.4 12,-12 V 204.2 c 0,-6.6 -5.4,-12 -12,-12 z"
     fill="none"
     stroke="#000000"
     stroke-width="11"
     transform="matrix(1.0667803,0,0,1.0667807,-64.427708,-199.17359)"
     id="path150-6"
     style="fill:#fbffff;fill-opacity:1;stroke:#ffffff;stroke-opacity:1;stroke-width:3.74959985;stroke-dasharray:none;stroke-linejoin:round" />
  <path
     clip-path="url(#a)"
     d="m77.9 192.2c-6.6 0-12 5.4-12 12v433.7c0 6.6 5.4 12 12 12h433.7c6.6 0 12-5.4 12-12v-433.7c0-6.6-5.4-12-12-12z"
     fill="none"
     stroke="#000"
     stroke-width="11"
     transform="matrix(1.0027737 0 0 1.0027732 -45.567533 -172.217756)"
     id="path150" />
  <g
     id="g2101">
    <g
       id="g2297"
       transform="matrix(2.3144394,0,0,2.3144394,-325.08093,5.0283221)"
       style="fill:none;stroke:#000000">
      <path
         clip-path="url(#a)"
         d="m 293.4,225 c 6.5,0 11.7,-5.2 11.7,-11.7 0,-6.5 -5.2,-11.7 -11.7,-11.7 -6.5,0 -11.7,5.2 -11.7,11.7 0,6.5 5.3,11.7 11.7,11.7"
         transform="matrix(1.0027737,0,0,1.0027732,-45.567533,-172.21776)"
         id="path152"
         style="fill:#000000;fill-opacity:1" />
      <path
         d="m 204.32367,88.202461 h 88.74548"
         stroke-linecap="round"
         stroke-width="14.045"
         id="path154" />
      <path
         d="m 204.32367,134.63084 h 88.74548"
         stroke-linecap="round"
         stroke-width="14.045"
         id="path156" />
      <path
         d="M 218.06168,170.73068 V 81.98526"
         stroke-linecap="round"
         stroke-width="14.045"
         id="path158" />
      <path
         d="M 279.43143,170.12901 V 81.98526"
         stroke-linecap="round"
         stroke-width="14.045"
         id="path160" />
      <path
         clip-path="url(#b)"
         d="m 326.4,254.4 c 0.7,-5 -14.7,-20.6 -32.9,-20.6 -18.2,0 -33.5,15.6 -32.9,20.6 0.8,7.6 65,5.5 65.8,0 z"
         stroke-width="11.566"
         transform="matrix(1.0027737,0,0,1.0027732,-45.567533,-172.21776)"
         id="path162" />
      <path
         d="m 248.84683,57.918694 v -7.11969"
         stroke-linecap="round"
         stroke-width="14.045"
         id="path164" />
    </g>
    <path
       clip-path="url(#c)"
       d="M 218.60001,195.5 V 646.20001"
       id="path166"
       transform="matrix(1.0027737,0,0,1.0027732,-45.567533,-172.21776)"
       style="fill:none;stroke:#000000;stroke-width:8" />
    <path
       clip-path="url(#c)"
       d="M 369.79999,195.5 V 646.20001"
       id="path168"
       transform="matrix(1.0027737,0,0,1.0027732,-45.567533,-172.21776)"
       style="fill:none;stroke:#000000;stroke-width:8" />
    <path
       clip-path="url(#c)"
       d="M 65.5,345.20001 H 528.29999"
       id="path170"
       transform="matrix(0.36071925,0,0,1.0027732,293.62983,-172.21776)"
       style="fill:none;stroke:#000000;stroke-width:8" />
    <path
       clip-path="url(#c)"
       d="M 344.70001,497.20001 H 528.29999"
       id="path172"
       transform="matrix(1.0027737,0,0,1.0027732,-45.567533,-172.21776)"
       style="fill:none;stroke:#000000;stroke-width:8" />
    <path
       clip-path="url(#c)"
       d="M 62.700001,497.20001 H 242.2"
       id="path174"
       transform="matrix(1.0027737,0,0,1.0027732,-45.567533,-172.21776)"
       style="fill:none;stroke:#000000;stroke-width:8" />
    <path
       clip-path="url(#c)"
       d="M 62.700001,345.20001 H 262.39999"
       id="path176"
       transform="matrix(0.86685556,0,0,1.0027732,-37.045465,-172.21776)"
       style="fill:none;stroke:#000000;stroke-width:8" />
    <path
       clip-path="url(#c-0)"
       d="M 65.5,345.20001 H 528.29999"
       id="path170-6"
       transform="matrix(0.33358304,0,0,1.0027732,-1.479798,-172.0216)"
       style="fill:none;stroke:#000000;stroke-width:8" />
  </g>
  <path
     id="path198"
     style="stroke-width:2.31444"
     d="m 113.76758,400.9043 v 32.26172 l 31.92383,32.72265 -0.50782,9.39258 H 332.125 l 0.66406,-0.33789 0.0137,0.33789 h 26.00782 l -0.49414,-9.39258 31.09961,-32.72265 V 400.9043 h -134.04688 -2.88476 z" />
</svg>
